# xmcd CD database file
#
# Track frame offsets:
#	150
#	16085
#	40255
#	59115
#	75640
#	90727
#	107455
#	126400
#	137720
#	155240
#	165325
#	181002
#
# Disc length: 2607 seconds
#
# Revision: 1
# Processed by: cddbd v1.5PL3 Copyright (c) Steve Scherf et al.
# Submitted via: CDex 1.51
#
DISCID=960a2d0c
DTITLE=Louise Hoffsten - Blues
DYEAR=1998
DGENRE=Jazz
TTITLE0=God Don't Ever Change
TTITLE1=It Serves You Right To Suffer
TTITLE2=I Wanna Make Love To You
TTITLE3=Weak Brain, Narrow Mind
TTITLE4=Baby, Don't You Tear My Clothes
TTITLE5=I Guess I'm A Fool
TTITLE6=I Pity The Fool
TTITLE7=Love To Love You
TTITLE8=The Seduction Of Sweet Louise
TTITLE9=Slow Down
TTITLE10=Belly Up Blues
TTITLE11=Darling, Do You Remember Me
EXTD=YEAR: 1998
EXTT0=
EXTT1=
EXTT2=
EXTT3=
EXTT4=
EXTT5=
EXTT6=
EXTT7=
EXTT8=
EXTT9=
EXTT10=
EXTT11=
PLAYORDER=
